#!OML:ASF E:\Style4\Style4.ASF
:FULLY-SPECIFIED
:DEGREES
1519
root 0.254092 17.5039 -1.70984 0.620475 3.32731 5.04058
lowerback 10.1989 5.09972 1.68173
upperback 7.33277 6.89134 0.441641
thorax 2.10041 3.5157 -1.02689
lowerneck 6.48174 -8.40634 -6.06241
upperneck -2.17198 -11.5332 4.17229
head -1.17163 -5.79976 2.64397
rclavicle 3.29983e-014 -1.90833e-014
rhumerus 16.0819 0.572559 -37.4135
rradius 60.8737
rwrist 16.1438
rhand -16.3913 10.1948
rfingers 7.12502
rthumb 9.82265 -19.5561
lclavicle 3.29983e-014 -1.90833e-014
lhumerus -19.9811 -1.90837 38.8416
lradius 86.1443
lwrist -5.41789
lhand -19.1919 29.2386
lfingers 7.12502
lthumb 7.11996 59.0989
rfemur -18.9918 -0.608229 11.8878
rtibia 41.1893
rfoot -20.7507 -13.9215
rtoes -12.5712
lfemur -17.1994 -0.0508778 -24.9994
ltibia 35.7393
lfoot -18.6734 3.66718
ltoes -11.7948
1520
root 0.270097 17.509 -1.71592 0.63303 3.12989 5.0389
lowerback 10.1875 5.09563 1.86982
upperback 7.36925 6.89805 0.548864
thorax 2.15454 3.52384 -1.0163
lowerneck 6.4899 -8.44919 -5.9572
upperneck -2.33062 -11.5935 3.81421
head -1.24783 -5.82036 2.5189
rclavicle -9.38264e-014 3.97569e-014
rhumerus 16.2678 0.85743 -38.0022
rradius 61.0335
rwrist 16.1701
rhand -16.7194 9.91977
rfingers 7.12502
rthumb 9.50609 -19.8458
lclavicle -9.38264e-014 3.97569e-014
lhumerus -19.8615 -1.89128 38.4657
lradius 86.2754
lwrist -5.22805
lhand -19.3269 29.7037
lfingers 7.12502
lthumb 6.98963 59.5683
rfemur -19.0589 -0.458289 11.8358
rtibia 41.1299
rfoot -20.6439 -13.8683
rtoes -12.7113
lfemur -17.2169 0.076165 -25.0681
ltibia 35.7185
lfoot -18.6055 3.94703
ltoes -12.9755
1521
root 0.286814 17.513 -1.71994 0.650992 2.95165 5.06883
lowerback 10.2029 5.06922 1.99468
upperback 7.34896 6.8712 0.67018
thorax 2.12366 3.51118 -0.961052
lowerneck 6.52066 -8.47254 -6.00942
upperneck -2.34438 -11.6405 3.51691
head -1.26966 -5.83573 2.43535
rclavicle -5.64548e-014 1.11319e-014
rhumerus 16.4632 1.20432 -38.6734
rradius 61.1946
rwrist 16.0856
rhand -16.7829 9.7445
rfingers 7.12502
rthumb 9.44484 -20.0239
lclavicle -5.64548e-014 1.11319e-014
lhumerus -19.7329 -1.80301 38.1558
lradius 86.235
lwrist -5.27684
lhand -19.1928 30.1201
lfingers 7.12502
lthumb 7.11904 59.9803
rfemur -19.1183 -0.334814 11.7405
rtibia 41.0723
rfoot -20.5469 -13.8055
rtoes -12.782
lfemur -17.2269 0.147336 -25.1719
ltibia 35.6936
lfoot -18.5491 4.16253
ltoes -13.6172
1522
root 0.306427 17.5148 -1.72285 0.65167 2.79172 5.03628
lowerback 10.2308 5.03391 2.23934
upperback 7.31425 6.84238 0.787988
thorax 2.08588 3.5018 -0.976222
lowerneck 6.51235 -8.51238 -6.01795
upperneck -2.27045 -11.7063 3.14633
head -1.26225 -5.85985 2.31573
rclavicle -3.77691e-014 3.65764e-014
rhumerus 16.619 1.50411 -39.3924
rradius 61.2701
rwrist 16.0466
rhand -16.7867 9.82893
rfingers 7.12502
rthumb 9.44115 -19.9396
lclavicle -3.77691e-014 3.65764e-014
lhumerus -19.4639 -1.7393 37.8849
lradius 85.9973
lwrist -5.41618
lhand -18.9966 29.9254
lfingers 7.12502
lthumb 7.30847 59.7792
rfemur -19.1442 -0.28128 11.7031
rtibia 41.0255
rfoot -20.4774 -13.7412
rtoes -13.0048
lfemur -17.1901 0.141116 -25.2108
ltibia 35.6361
lfoot -18.5636 4.31424
ltoes -13.7406
1523
root 0.328737 17.5157 -1.72441 0.643392 2.56149 5.05892
lowerback 10.2628 5.01415 2.44178
upperback 7.29296 6.83104 0.88979
thorax 2.0576 3.50012 -0.985645
lowerneck 6.49851 -8.55341 -6.01097
upperneck -2.24428 -11.7739 2.72766
head -1.27321 -5.8833 2.18065
rclavicle 0 2.06736e-014
rhumerus 16.7664 1.8402 -40.0584
rradius 61.4178
rwrist 15.8635
rhand -16.9156 9.89351
rfingers 7.12502
rthumb 9.31674 -19.8806
lclavicle 0 2.06736e-014
lhumerus -19.2476 -1.64561 37.6425
lradius 85.7824
lwrist -5.47547
lhand -19.0168 29.4357
lfingers 7.12502
lthumb 7.28891 59.2901
rfemur -19.182 -0.21682 11.5908
rtibia 40.9874
rfoot -20.4108 -13.5964
rtoes -13.1296
lfemur -17.1002 0.106377 -25.3147
ltibia 35.5506
lfoot -18.6693 4.45533
ltoes -13.0505
1524
root 0.347979 17.5144 -1.72632 0.653397 2.28086 5.23025
lowerback 10.2656 5.00912 2.43489
upperback 7.28904 6.82243 0.96456
thorax 2.04134 3.49311 -0.905565
lowerneck 6.49684 -8.5393 -5.99061
upperneck -2.25703 -11.769 2.29077
head -1.30434 -5.8696 2.04006
rclavicle -8.74653e-015 -1.59028e-014
rhumerus 16.9157 2.20082 -40.7533
rradius 61.7071
rwrist 15.6369
rhand -17.0551 9.73091
rfingers 7.12502
rthumb 9.18217 -20.0492
lclavicle -8.74653e-015 -1.59028e-014
lhumerus -19.087 -1.49942 37.3962
lradius 85.6101
lwrist -5.51494
lhand -19.0775 29.0759
lfingers 7.12502
lthumb 7.23039 58.9324
rfemur -19.2561 -0.0634245 11.3226
rtibia 40.9519
rfoot -20.3744 -13.4663
rtoes -13.1433
lfemur -17.0282 0.103832 -25.5656
ltibia 35.456
lfoot -18.842 4.569
ltoes -12.053
1525
root 0.365355 17.5174 -1.72819 0.652433 2.01105 5.25887
lowerback 10.2811 4.98922 2.54629
upperback 7.28299 6.80332 1.07368
thorax 2.0258 3.48422 -0.855049
lowerneck 6.46734 -8.50937 -5.88112
upperneck -2.25995 -11.7365 1.80194
head -1.33666 -5.84172 1.8672
rclavicle -1.47498e-013 2.06736e-014
rhumerus 17.0668 2.51774 -41.4939
rradius 62.0027
rwrist 15.4235
rhand -17.1421 9.53139
rfingers 7.12502
rthumb 9.0982 -20.2524
lclavicle -1.47498e-013 2.06736e-014
lhumerus -18.9358 -1.37583 37.1363
lradius 85.5265
lwrist -5.60816
lhand -19.0488 28.9987
lfingers 7.12502
lthumb 7.258 58.8543
rfemur -19.3125 0.104168 11.2328
rtibia 40.9054
rfoot -20.2826 -13.4168
rtoes -13.3287
lfemur -16.9672 0.23713 -25.6592
ltibia 35.351
lfoot -18.882 4.66801
ltoes -11.7735
1526
root 0.385402 17.5212 -1.72917 0.67922 1.74601 5.25993
lowerback 10.2717 4.98121 2.75687
upperback 7.26274 6.80739 1.15444
thorax 2.02532 3.49118 -0.887267
lowerneck 6.43933 -8.52345 -5.8666
upperneck -2.20596 -11.7646 1.44521
head -1.33513 -5.84765 1.75014
rclavicle -3.97569e-014 3.18055e-014
rhumerus 17.1472 2.70666 -42.2212
rradius 62.2921
rwrist 15.2046
rhand -16.8993 9.54871
rfingers 7.12502
rthumb 9.3325 -20.2247
lclavicle -3.97569e-014 3.18055e-014
lhumerus -18.6946 -1.33971 36.8726
lradius 85.4678
lwrist -5.68687
lhand -19.0424 29.0037
lfingers 7.12502
lthumb 7.26426 58.859
rfemur -19.4004 0.220569 11.1638
rtibia 40.872
rfoot -20.1637 -13.355
rtoes -13.7836
lfemur -16.943 0.360675 -25.7393
ltibia 35.2586
lfoot -18.8489 4.88618
ltoes -12.2223
